<?xml version="1.0" encoding="iso-8859-1"?>
<!-- Generator: Adobe Illustrator 16.0.0, SVG Export Plug-In . SVG Version: 6.00 Build 0)  -->
<!DOCTYPE svg PUBLIC "-//W3C//DTD SVG 1.1//EN" "http://www.w3.org/Graphics/SVG/1.1/DTD/svg11.dtd">
<svg version="1.1" id="Capa_1" xmlns="http://www.w3.org/2000/svg" xmlns:xlink="http://www.w3.org/1999/xlink" x="0px" y="0px"
	 width="414.243px" height="414.242px" viewBox="0 0 414.243 414.242" style="enable-background:new 0 0 414.243 414.242;"
	 xml:space="preserve">
<g>
	<g>
		<path d="M118.043,330.001c49.626,0,90-40.374,90-90.001c0-49.626-40.374-90-90-90v30c33.084,0,60,26.916,60,60
			c0,33.085-26.916,60.001-60,60.001c-6.344,0-12.506-0.971-18.358-2.844l20.842-11.89l-77.479-45.271l-0.474,89.739l25.784-14.709
			C83.015,324.725,100.355,330.001,118.043,330.001z"/>
		<path d="M118.043,74.999v30c74.439,0,135,60.561,135,135c0,46.858-24.595,90.278-63.81,114.703l-7.003-27.412l-64.188,62.707
			l86.402,24.245l-7.489-29.314c24.01-13.085,44.426-31.926,59.447-54.994c17.429-26.765,26.641-57.862,26.641-89.935
			C283.043,149.018,209.024,74.999,118.043,74.999z"/>
		<path d="M345.155,317.788c8.557-24.963,12.889-51.076,12.889-77.788c0-64.104-24.964-124.374-70.293-169.704
			C242.421,24.965,182.15,0,118.043,0v30c115.794,0,210,94.205,210,210c0,21.641-3.246,42.819-9.658,63.16l-25.473-13.919
			l2.109,89.711l76.646-46.677L345.155,317.788z"/>
	</g>
</g>
<g>
</g>
<g>
</g>
<g>
</g>
<g>
</g>
<g>
</g>
<g>
</g>
<g>
</g>
<g>
</g>
<g>
</g>
<g>
</g>
<g>
</g>
<g>
</g>
<g>
</g>
<g>
</g>
<g>
</g>
</svg>
